Coordinates
version=1
nRows=27
nColumns=38
inDegrees=no

Units are S.I. units (second, meters, Newtons, ...)
If the header above contains a line with 'inDegrees', this indicates whether rotational values are in degrees (yes) or radians (no).

endheader
time	pelvis_tilt	pelvis_list	pelvis_rotation	pelvis_tx	pelvis_ty	pelvis_tz	hip_flexion_r	hip_adduction_r	hip_rotation_r	knee_angle_r	ankle_angle_r	subtalar_angle_r	mtp_angle_r	hip_flexion_l	hip_adduction_l	hip_rotation_l	knee_angle_l	ankle_angle_l	subtalar_angle_l	mtp_angle_l	lumbar_extension	lumbar_bending	lumbar_rotation	arm_flex_r	arm_add_r	arm_rot_r	elbow_flex_r	pro_sup_r	wrist_flex_r	wrist_dev_r	arm_flex_l	arm_add_l	arm_rot_l	elbow_flex_l	pro_sup_l	wrist_flex_l	wrist_dev_l
1.24167	-0.111953	0.110261	0.0360815	1.00433	0.980127	-0.321861	-0.299739	-0.00479081	0.0387535	-1.13638	-0.290461	-0.0164164	0.00649309	0.709625	0.210302	0.160752	-0.341641	0.269186	-0.0119736	-0.0305468	-0.0424978	-0.155106	0.0751924	-0.329834	-0.396205	0.222463	1.84784	1.97192	0.0274722	0.00618116	-0.914402	-0.317994	-0.109717	1.95385	2.27543	0.1	-0.0814773
1.25	-0.102719	0.107084	0.0409981	1.00302	0.976612	-0.322184	-0.267226	-0.00946782	0.0116789	-1.26461	-0.282416	-0.0164164	0.00649309	0.687338	0.212041	0.147859	-0.353427	0.250916	-0.0119736	-0.0305468	-0.0594019	-0.151797	0.0567794	-0.344444	-0.390222	0.215525	1.80588	1.97116	0.0274722	0.00618116	-0.887993	-0.313644	-0.110032	1.94107	2.26951	0.1	-0.0814773
1.25833	-0.0955682	0.107589	0.0475972	1.00137	0.972323	-0.322871	-0.230663	-0.0209799	-0.0170821	-1.3915	-0.272603	-0.0164164	0.00649309	0.669712	0.219016	0.133189	-0.377617	0.226056	-0.0119736	-0.0305468	-0.0752202	-0.151913	0.0351071	-0.359942	-0.384029	0.206905	1.76139	1.97186	0.0274722	0.00618116	-0.860803	-0.310035	-0.110019	1.92823	2.26145	0.1	-0.0814773
1.26667	-0.090577	0.111554	0.0556135	0.999355	0.967295	-0.323883	-0.190005	-0.0387749	-0.045116	-1.51562	-0.260636	-0.0164164	0.00649309	0.657252	0.231026	0.11843	-0.414049	0.197164	-0.0119736	-0.0305468	-0.0899419	-0.155236	0.0102952	-0.375548	-0.377668	0.197021	1.71428	1.97418	0.0274722	0.00618116	-0.832921	-0.30742	-0.109775	1.91588	2.25179	0.1	-0.0814773
1.275	-0.0876223	0.118692	0.0647589	0.99693	0.961661	-0.325157	-0.145053	-0.0619415	-0.0702161	-1.6358	-0.246601	-0.0164164	0.00649309	0.649907	0.247687	0.104914	-0.462077	0.168229	-0.0119736	-0.0305468	-0.103778	-0.161492	-0.0175241	-0.390462	-0.37112	0.186224	1.66429	1.97798	0.0274722	0.00618116	-0.80428	-0.305952	-0.109391	1.90451	2.24123	0.1	-0.0814773
1.28333	-0.0864986	0.128646	0.0747108	0.994086	0.955684	-0.326602	-0.095396	-0.0892304	-0.0904575	-1.75106	-0.230928	-0.0164164	0.00649309	0.646977	0.268394	0.0935527	-0.520185	0.144068	-0.0119736	-0.0305468	-0.11698	-0.170341	-0.0480877	-0.404025	-0.364326	0.174724	1.61115	1.98296	0.0274722	0.00618116	-0.77467	-0.305686	-0.108915	1.89455	2.23058	0.1	-0.0814773
1.29167	-0.0869928	0.140929	0.0850685	0.990837	0.949704	-0.328111	-0.0404333	-0.119078	-0.104245	-1.86041	-0.214156	-0.0164164	0.00649309	0.647142	0.292275	0.0848624	-0.585753	0.129349	-0.0119736	-0.0305468	-0.129651	-0.181341	-0.0808668	-0.415869	-0.357237	0.162541	1.55482	1.98887	0.0274722	0.00618116	-0.743789	-0.306583	-0.108301	1.88635	2.22063	0.1	-0.0814773
1.3	-0.0889687	0.154894	0.0952921	0.987226	0.944021	-0.329564	0.0204722	-0.149623	-0.11036	-1.96283	-0.196725	-0.0164164	0.00649309	0.648553	0.318142	0.0790526	-0.655139	0.127568	-0.0119736	-0.0305468	-0.141696	-0.193861	-0.114962	-0.426034	-0.349865	0.149486	1.49564	1.99569	0.0274722	0.00618116	-0.711304	-0.308507	-0.107389	1.88018	2.2121	0.1	-0.0814773
1.30833	-0.0922875	0.169688	0.104674	0.983322	0.938766	-0.330861	0.0877532	-0.178751	-0.108039	-2.05714	-0.178844	-0.0164164	0.00649309	0.649054	0.344509	0.0761119	-0.724082	0.14035	-0.0119736	-0.0305468	-0.152823	-0.207035	-0.149073	-0.435004	-0.342335	0.135197	1.43455	2.00366	0.0274722	0.00618116	-0.676931	-0.311217	-0.105917	1.87625	2.20561	0.1	-0.0814773
1.31667	-0.096724	0.184262	0.112355	0.979224	0.933951	-0.331937	0.16137	-0.204224	-0.0970806	-2.14203	-0.1605	-0.0164164	0.00649309	0.646462	0.369676	0.0758805	-0.788321	0.167273	-0.0119736	-0.0305468	-0.162651	-0.219771	-0.181584	-0.443667	-0.334913	0.119226	1.37314	2.0132	0.0274722	0.00618116	-0.640526	-0.314376	-0.103569	1.87475	2.20159	0.1	-0.0814773
1.325	-0.101903	0.197448	0.117401	0.97506	0.929591	-0.33276	0.240616	-0.223881	-0.0779678	-2.21608	-0.141556	-0.0164164	0.00649309	0.638824	0.391895	0.0780942	-0.844216	0.206183	-0.0119736	-0.0305468	-0.170824	-0.230826	-0.210759	-0.453175	-0.32799	0.101181	1.31355	2.02467	0.0274722	0.00618116	-0.602169	-0.317574	-0.100062	1.87592	2.20018	0.1	-0.0814773
1.33333	-0.107304	0.208093	0.11894	0.970978	0.925777	-0.333316	0.324062	-0.235897	-0.0519168	-2.27788	-0.1219	-0.0164164	0.00649309	0.624614	0.409567	0.0824057	-0.889136	0.253771	-0.0119736	-0.0305468	-0.177095	-0.238967	-0.23501	-0.464742	-0.322037	0.0808871	1.25826	2.03811	0.0274722	0.00618116	-0.562224	-0.320373	-0.0952301	1.87999	2.20124	0.1	-0.0814773
1.34167	-0.112355	0.215211	0.116328	0.967147	0.922662	-0.333607	0.409695	-0.239037	-0.0208256	-2.3262	-0.101533	-0.0164164	0.00649309	0.602836	0.421427	0.0883945	-0.921561	0.306144	-0.0119736	-0.0305468	-0.181327	-0.243154	-0.253192	-0.479419	-0.317543	0.058537	1.20968	2.05309	0.0274722	0.00618116	-0.521365	-0.322368	-0.0891023	1.88718	2.20433	0.1	-0.0814773
1.35	-0.11659	0.218127	0.109298	0.963749	0.920393	-0.333651	0.495184	-0.232849	0.0128956	-2.36007	-0.0806022	-0.0164164	0.00649309	0.573042	0.42668	0.0955794	-0.940902	0.359256	-0.0119736	-0.0305468	-0.183433	-0.242702	-0.264852	-0.497892	-0.31494	0.0347823	1.1698	2.06859	0.0274722	0.00618116	-0.480578	-0.323239	-0.0819404	1.89763	2.20883	0.1	-0.0814773
1.35833	-0.119802	0.216532	0.0980454	0.96096	0.919068	-0.33348	0.578245	-0.217662	0.0466329	-2.3789	-0.0593526	-0.0164164	0.00649309	0.535298	0.425054	0.103479	-0.947194	0.409105	-0.0119736	-0.0305468	-0.183262	-0.237375	-0.270344	-0.520352	-0.314555	0.0107142	1.13986	2.08327	0.0274722	0.00618116	-0.441107	-0.322789	-0.0742447	1.91133	2.21412	0.1	-0.0814773
1.36667	-0.122089	0.210466	0.083227	0.958927	0.918727	-0.333118	0.656885	-0.194462	0.0778877	-2.38255	-0.0380509	-0.0164164	0.00649309	0.490047	0.416759	0.111661	-0.940787	0.451819	-0.0119736	-0.0305468	-0.180583	-0.227359	-0.270799	-0.546482	-0.31657	-0.0122834	1.12018	2.09578	0.0274722	0.00618116	-0.404358	-0.320948	-0.066701	1.92809	2.21971	0.1	-0.0814773
1.375	-0.12376	0.200224	0.0658466	0.957764	0.919388	-0.332563	0.729498	-0.164671	0.104555	-2.3713	-0.016904	-0.0164164	0.00649309	0.437926	0.402357	0.119755	-0.922168	0.483707	-0.0119736	-0.0305468	-0.175185	-0.21312	-0.267885	-0.575597	-0.32099	-0.03285	1.11028	2.105	0.0274722	0.00618116	-0.371705	-0.317785	-0.0600262	1.94753	2.22533	0.1	-0.0814773
1.38333	-0.125148	0.186211	0.0470624	0.957534	0.921053	-0.331795	0.794839	-0.129897	0.125134	-2.34587	0.00399006	-0.0164164	0.00649309	0.379618	0.382592	0.127407	-0.89195	0.501378	-0.0119736	-0.0305468	-0.167079	-0.195176	-0.263332	-0.60699	-0.327594	-0.0501666	1.10922	2.11034	0.0274722	0.00618116	-0.344171	-0.313515	-0.0546536	1.96917	2.23093	0.1	-0.0814773
1.39167	-0.126485	0.168853	0.0279989	0.958254	0.92369	-0.3308	0.852035	-0.0917165	0.138847	-2.30727	0.0246113	-0.0164164	0.00649309	0.315825	0.358234	0.134206	-0.850913	0.501897	-0.0119736	-0.0305468	-0.156543	-0.173961	-0.258635	-0.640087	-0.335977	-0.0641125	1.11583	2.11179	0.0274722	0.00618116	-0.32232	-0.308459	-0.050657	1.99248	2.23663	0.1	-0.0814773
1.4	-0.127882	0.148562	0.00959068	0.959886	0.927225	-0.329588	0.900627	-0.0515385	0.145648	-2.25677	0.0449429	-0.0164164	0.00649309	0.247329	0.329992	0.13962	-0.800062	0.483034	-0.0119736	-0.0305468	-0.144071	-0.14981	-0.25491	-0.674464	-0.345655	-0.0751682	1.12896	2.1099	0.0274722	0.00618116	-0.306284	-0.302986	-0.0478116	2.01694	2.24262	0.1	-0.0814773
1.40833	-0.12938	0.125768	-0.00750801	0.962347	0.931541	-0.328185	0.940601	-0.010563	0.146178	-2.19575	0.0648988	-0.0164164	0.00649309	0.175123	0.298531	0.142997	-0.740709	0.443567	-0.0119736	-0.0305468	-0.130252	-0.12303	-0.252879	-0.709796	-0.356167	-0.0841741	1.14752	2.10565	0.0274722	0.00618116	-0.295868	-0.297465	-0.0457133	2.04215	2.249	0.1	-0.0814773
1.41667	-0.13103	0.100982	-0.0229445	0.965503	0.936482	-0.326625	0.972398	0.0302364	0.141672	-2.12559	0.0842837	-0.0164164	0.00649309	0.10053	0.264556	0.143672	-0.674578	0.383619	-0.0119736	-0.0305468	-0.115623	-0.0940335	-0.252921	-0.745776	-0.367162	-0.0920474	1.17053	2.10024	0.0274722	0.00618116	-0.290657	-0.292239	-0.0439018	2.0678	2.25571	0.1	-0.0814773
1.425	-0.132942	0.074893	-0.0366177	0.969188	0.941852	-0.324946	0.996836	0.070042	0.133822	-2.04759	0.102814	-0.0164164	0.00649309	0.0252564	0.228946	0.141159	-0.6039	0.304914	-0.0119736	-0.0305468	-0.100564	-0.0634624	-0.255178	-0.782031	-0.378431	-0.0995477	1.19712	2.09484	0.0274722	0.00618116	-0.290125	-0.287618	-0.0419567	2.09374	2.26245	0.1	-0.0814773
1.43333	-0.135312	0.0484361	-0.0485836	0.973217	0.947415	-0.323191	1.01498	0.108061	0.124587	-1.96286	0.120185	-0.0164164	0.00649309	-0.0486677	0.192866	0.135388	-0.531471	0.210874	-0.0119736	-0.0305468	-0.0852625	-0.0322763	-0.259659	-0.818077	-0.389895	-0.10714	1.22647	2.09041	0.0274722	0.00618116	-0.293699	-0.283874	-0.0395523	2.11988	2.26873	0.1	-0.0814773
1.44167	-0.138393	0.0228063	-0.0589495	0.977392	0.952925	-0.321412	1.02796	0.143385	0.115968	-1.87233	0.136164	-0.0164164	0.00649309	-0.119034	0.157808	0.126902	-0.460612	0.106476	-0.0119736	-0.0305468	-0.0697326	-0.00176372	-0.266322	-0.853308	-0.401551	-0.11497	1.25774	2.08759	0.0274722	0.00618116	-0.300795	-0.281232	-0.0364717	2.14619	2.27393	0.1	-0.0814773
1.45	-0.142456	-0.000607469	-0.0677889	0.981499	0.958159	-0.319674	1.03688	0.174902	0.109769	-1.77673	0.150655	-0.0164164	0.00649309	-0.18367	0.125528	0.1169	-0.395005	-0.00214667	-0.0119736	-0.0305468	-0.0538732	0.0265351	-0.2751	-0.887023	-0.413393	-0.122921	1.29007	2.08666	0.0274722	0.00618116	-0.31082	-0.279865	-0.0325912	2.17259	2.27747	0.1	-0.0814773
1.45833	-0.147726	-0.0203584	-0.0751	0.985337	0.962946	-0.318052	1.0426	0.201311	0.107389	-1.67661	0.163753	-0.0164164	0.00649309	-0.240663	0.0978735	0.107088	-0.338394	-0.108339	-0.0119736	-0.0305468	-0.0375503	0.050987	-0.285868	-0.918474	-0.42533	-0.13073	1.32251	2.08755	0.0274722	0.00618116	-0.323149	-0.279865	-0.0278464	2.19888	2.27891	0.1	-0.0814773
